<svg viewBox="0 0 242 35" fill="none" xmlns="http://www.w3.org/2000/svg" aria-labelledby="logoLabel">
<defs>
<linearGradient id="linear-grad" x1="122" y1="-8" x2="122" y2="48" gradientUnits="userSpaceOnUse">
<stop stop-color="#FAD449"/>
<stop offset="1" stop-color="#FF1694"/>
</linearGradient>
</defs>
<path preserveAspectRatio="xMidYMid" d="M13.5399 0.928675C17.323 0.928675 19.8582 2.14466 21.1457 4.57662C22.0359 6.42046 22.4809 8.22456 22.4809 9.98893H22.4333C19.8423 10.2115 18.07 10.3227 17.1163 10.3227C17.1163 9.06701 16.7269 8.00998 15.948 7.15164C15.2168 6.73836 14.5413 6.53173 13.9214 6.53173H12.9677C11.3464 6.53173 10.3609 7.15959 10.0112 8.41531C9.9317 8.7809 9.89196 9.06701 9.89196 9.27365V9.77434C9.89196 11.5546 10.8298 12.8421 12.7054 13.6369C12.8644 13.7799 14.1678 14.376 16.6156 15.4251C17.919 16.0291 19.1271 16.7762 20.2397 17.6663V17.714H14.2552V18.3816H22.1471V19.3353H23.1485V29.6831H21.1934V35H6.02943V29.6831H2.45301V26.1066H4.47965V24.8668H2.45301V24.0323H9.39126V29.6831H16.4964V21.1712H11.1795V18.3816H4.57502V17.714H7.76995V17.6663C4.9724 15.8066 3.57362 13.1759 3.57362 9.77434V9.32133C3.57362 6.47609 4.44786 4.31435 6.19633 2.8361C7.78585 1.56448 10.2337 0.928675 13.5399 0.928675ZM22.1471 17.714H24.5553V18.3816H22.1471V17.714ZM0.164106 24.8668H2.45301V26.1066H0.164106V24.8668ZM15.4473 24.8668H16.1626C16.2421 24.8827 16.2818 24.9225 16.2818 24.986V25.1529H15.6619V25.3675H16.2103V25.5344C16.2103 25.6139 16.1785 25.6536 16.1149 25.6536H15.6619V25.8921H16.2818V26.059C16.2818 26.1225 16.2421 26.1543 16.1626 26.1543H15.4473C15.3678 26.1543 15.3281 26.1225 15.3281 26.059V24.986C15.344 24.9066 15.3837 24.8668 15.4473 24.8668ZM15.1612 26.5597H15.3758C15.4076 26.5597 15.5427 26.7027 15.7811 26.9888C15.8924 26.7027 15.9798 26.5597 16.0434 26.5597H16.2103C16.2898 26.5597 16.3295 26.5914 16.3295 26.655C15.9957 27.0365 15.8288 27.4339 15.8288 27.8472H15.6619C15.5824 27.8472 15.5268 27.6246 15.495 27.1796C15.2725 26.8776 15.1612 26.6709 15.1612 26.5597ZM14.9943 28.2287H15.2089C15.3043 28.2287 15.3996 28.475 15.495 28.9678H15.6142C15.7096 28.475 15.797 28.2287 15.8765 28.2287H16.1149C16.1785 28.2445 16.2103 28.2843 16.2103 28.3479V29.3969C16.2103 29.4764 16.1785 29.5162 16.1149 29.5162H15.948V28.8009H15.8765L15.6619 29.5162H15.495C15.4155 29.5162 15.3202 29.2777 15.2089 28.8009H15.1612V29.5162H14.9943C14.9148 29.5162 14.8751 29.4764 14.8751 29.3969V28.3479C14.891 28.2684 14.9307 28.2287 14.9943 28.2287ZM21.5272 29.9692H22.0995C22.4015 29.9692 22.5525 30.1202 22.5525 30.4222C22.473 30.4222 22.4333 30.454 22.4333 30.5176C22.5445 30.6606 22.6002 30.7957 22.6002 30.9229C22.5048 31.1454 22.2981 31.2567 21.9802 31.2567H21.6464C21.567 31.2567 21.5272 31.2169 21.5272 31.1375V29.9692ZM21.861 30.2553V30.4699H22.0995C22.163 30.4699 22.1948 30.4301 22.1948 30.3507V30.2553H21.861ZM21.861 30.6845V30.9706H22.1471C22.2266 30.9706 22.2664 30.9308 22.2664 30.8514V30.8037C22.2664 30.7242 22.2266 30.6845 22.1471 30.6845H21.861ZM21.5272 31.6382H21.7657C21.8451 31.6382 22.012 31.9004 22.2664 32.425H22.314V31.6382H22.6002V32.8065C22.6002 32.8859 22.5604 32.9257 22.4809 32.9257H22.3617C22.3299 32.9257 22.1471 32.6873 21.8133 32.2104V32.8065C21.8133 32.8859 21.7736 32.9257 21.6941 32.9257H21.6464C21.567 32.9257 21.5272 32.8859 21.5272 32.8065V31.6382ZM23.9354 0.833304H43.9633V6.53173H37.335V30.1599H40.3392V30.8514H37.335V33.4502H35.5468V34.3562H36.8105V35H30.7305C30.6511 35 30.6113 34.9603 30.6113 34.8808V6.53173H23.9354V0.833304ZM34.9746 30.1599V30.8514H37.2873V30.1599H34.9746ZM42.485 0.857147H49.0656V18.9061H45.9661V19.8598H49.0656V23.2455C49.0656 26.3292 49.614 28.1253 50.7108 28.634C51.2671 28.9837 51.9586 29.1585 52.7851 29.1585H54.8117V23.174H56.6V0.857147H63.1329V21.8388H60.7724V23.3647H63.1329C63.1011 23.8575 63.0852 24.231 63.0852 24.4853V31.1852H59.6518V35H44.3925V30.2791H42.9857V16.1642H42.485V0.857147ZM49.0656 18.9061H52.7851V19.8598H49.0656V18.9061ZM64.4681 0.714091H73.3137C78.4797 0.714091 81.7859 2.04929 83.2323 4.71968C84.0748 6.40457 84.496 8.55042 84.496 11.1572C84.4483 11.6341 84.4245 12.1109 84.4245 12.5878H89.3361V14.2329H84.2576V14.1853C84.337 13.1839 84.3768 12.6514 84.3768 12.5878H81.5157V14.2329H84.2576V20.0506H78.6068V22.0534H78.5592C74.2039 22.0852 71.7322 22.1011 71.144 22.1011V25.1291H69.9519V30.4937H70.6195V35H65.2549V32.878H64.5158V31.1136C64.5158 29.079 64.4999 25.757 64.4681 21.1473H67.7107V19.383H64.4681V0.714091ZM71.144 6.53173V16.2834H73.1945V14.8767H77.2478C77.7723 14.3839 78.0346 12.9931 78.0346 10.7042C78.0346 8.52657 77.5419 7.27085 76.5564 6.93705C76.1908 6.66684 75.3563 6.53173 74.0529 6.53173H71.144ZM90.5044 0.833304H96.9419C97.0055 0.8492 97.0373 0.888938 97.0373 0.952518V17.5471C97.0373 17.6266 97.0055 17.6663 96.9419 17.6663H96.179V34.8808C96.179 34.9603 96.1392 35 96.0597 35H90.5044C90.4249 35 90.3852 34.9603 90.3852 34.8808V17.261H88.6685C88.589 17.261 88.5493 17.2212 88.5493 17.1418V16.4026C88.5652 16.3232 88.6049 16.2834 88.6685 16.2834H90.3852V0.952518C90.4011 0.873042 90.4408 0.833304 90.5044 0.833304ZM90.4328 16.2834V17.261H93.7232V16.2834H90.4328ZM99.7554 0.904833H110.151C114.474 0.904833 117.447 2.37514 119.068 5.31575C120.467 7.60465 121.166 11.4036 121.166 16.7126H122.191V24.8668H112.082V23.937H115.253V16.7126H114.323V13.7322C114.323 10.3784 113.576 8.24046 112.082 7.31854C111.208 6.82579 109.801 6.57941 107.862 6.57941H106.455V16.5457H107.409V24.8668H100.59V17.1656H99.7554V0.904833ZM96.7273 24.8668H99.8031V25.9397H107.409V28.181H112.082V25.9397H122.191V28.181H115.253V34.2609H107.409V35H99.8746C99.7951 35 99.7554 34.9603 99.7554 34.8808V25.9397H96.7273V24.8668ZM107.409 24.8668H112.082V25.9397H107.409V24.8668ZM122.191 24.8668H128.891V25.9397H122.191V24.8668ZM148.323 0.833304C153.092 0.833304 156.096 2.3195 157.336 5.2919C157.685 6.02308 157.86 6.50788 157.86 6.74631H154.856V7.65234H158.075V7.60465C158.075 7.4457 158.003 7.15959 157.86 6.74631H163.368V7.65234H158.146V7.72387C158.417 8.99548 158.607 10.3704 158.719 11.8487C158.719 11.9281 156.628 12.0791 152.448 12.3017V12.254C152.448 8.45504 151.145 6.55557 148.538 6.55557H147.87C145.915 6.55557 144.723 7.38212 144.294 9.03522C143.944 10.434 143.769 12.2699 143.769 14.5429V19.1922L143.721 19.8837H141.552V20.9804H143.721V29.2539H152.925V20.6466H158.194V29.2539H155.261V34.547H149.134V35H144.365V34.547H139.525V31.9004H142.744V30.756H137.928V26.8458H135.853V22.0295H136.95C136.902 20.0267 136.879 18.4531 136.879 17.3087C136.879 12.1109 137.133 8.83653 137.642 7.48544C138.103 5.92771 138.865 4.58457 139.93 3.45601C141.822 1.70754 144.62 0.833304 148.323 0.833304ZM144.174 27.5372H144.461V28.7294H145.152V29.087H144.174C144.111 29.087 144.079 29.0473 144.079 28.9678V27.6564C144.079 27.5769 144.111 27.5372 144.174 27.5372ZM151.351 27.5372H151.709C151.9 27.6962 151.995 27.8472 151.995 27.9902C152.027 27.9902 152.162 27.8392 152.4 27.5372H152.686V27.6564C152.416 28.0061 152.281 28.2525 152.281 28.3956C152.329 28.3956 152.48 28.6022 152.734 29.0155V29.087H152.4L151.995 28.634C151.852 28.9042 151.741 29.0552 151.661 29.087H151.303C151.383 28.928 151.558 28.6578 151.828 28.2763L151.351 27.5849V27.5372ZM156.072 29.6115C156.453 29.7069 156.644 29.8182 156.644 29.9453V30.1838H156.406L156.191 29.9453H155.953C155.873 29.9612 155.834 30.001 155.834 30.0645V30.1838C156.422 30.295 156.716 30.4222 156.716 30.5652V30.756C156.716 31.058 156.541 31.209 156.191 31.209H155.953C155.746 31.209 155.579 31.0977 155.452 30.8752V30.6368H155.786C155.786 30.8275 155.897 30.9229 156.12 30.9229H156.191C156.239 30.9229 156.295 30.8673 156.358 30.756C156.358 30.7083 156.088 30.5732 155.547 30.3507L155.5 30.2314V29.9453C155.5 29.8182 155.691 29.7069 156.072 29.6115ZM162.223 0.833304H168.661C168.725 0.8492 168.756 0.888938 168.756 0.952518V17.5471C168.756 17.6266 168.725 17.6663 168.661 17.6663H167.898V34.8808C167.898 34.9603 167.858 35 167.779 35H162.223C162.144 35 162.104 34.9603 162.104 34.8808V17.261H160.388C160.308 17.261 160.268 17.2212 160.268 17.1418V16.4026C160.284 16.3232 160.324 16.2834 160.388 16.2834H162.104V0.952518C162.12 0.873042 162.16 0.833304 162.223 0.833304ZM162.152 16.2834V17.261H165.442V16.2834H162.152ZM168.804 0.833304H188.832V6.53173H182.204V30.1599H185.208V30.8514H182.204V33.4502H180.415V34.3562H181.679V35H175.599C175.52 35 175.48 34.9603 175.48 34.8808V6.53173H168.804V0.833304ZM179.843 30.1599V30.8514H182.156V30.1599H179.843ZM189.309 0.833304H195.746C195.81 0.8492 195.842 0.888938 195.842 0.952518V17.5471C195.842 17.6266 195.81 17.6663 195.746 17.6663H194.983V34.8808C194.983 34.9603 194.944 35 194.864 35H189.309C189.229 35 189.19 34.9603 189.19 34.8808V17.261H187.473C187.393 17.261 187.354 17.2212 187.354 17.1418V16.4026C187.37 16.3232 187.409 16.2834 187.473 16.2834H189.19V0.952518C189.206 0.873042 189.245 0.833304 189.309 0.833304ZM189.237 16.2834V17.261H192.528V16.2834H189.237ZM199.156 1.07173H215.87V6.6271C215.87 6.70657 215.83 6.74631 215.75 6.74631H205.832V14.0899H214.725V14.1614C214.725 14.3681 214.693 15.5681 214.63 17.7617C214.582 17.7617 214.558 17.7776 214.558 17.8094H214.964V19.526H207.262V26.4881H205.188V27.1796H207.262V29.3016H215.989V30.0884H215.297V34.2609H204.854V35H199.895V22.8402H199.156V18.5485H193.72V17.8094H199.156V1.07173ZM199.204 17.8094V18.5485H201.993V17.8094H199.204ZM230.199 0.928675C233.982 0.928675 236.518 2.14466 237.805 4.57662C238.695 6.42046 239.14 8.22456 239.14 9.98893H239.093C236.502 10.2115 234.729 10.3227 233.776 10.3227C233.776 9.06701 233.386 8.00998 232.607 7.15164C231.876 6.73836 231.201 6.53173 230.581 6.53173H229.627C228.006 6.53173 227.02 7.15959 226.67 8.41531C226.591 8.7809 226.551 9.06701 226.551 9.27365V9.77434C226.551 11.5546 227.489 12.8421 229.365 13.6369C229.524 13.7799 230.827 14.376 233.275 15.4251C234.578 16.0291 235.786 16.7762 236.899 17.6663V17.714H230.914V18.3816H238.806V19.3353H239.808V29.6831H237.853V35H222.689V29.6831H219.112V26.1066H221.139V24.8668H219.112V24.0323H226.051V29.6831H233.156V21.1712H227.839V18.3816H221.234V17.714H224.429V17.6663C221.632 15.8066 220.233 13.1759 220.233 9.77434V9.32133C220.233 6.47609 221.107 4.31435 222.856 2.8361C224.445 1.56448 226.893 0.928675 230.199 0.928675ZM238.806 17.714H241.215V18.3816H238.806V17.714ZM216.823 24.8668H219.112V26.1066H216.823V24.8668Z" fill="url(#linear-grad)"/>
</svg>
