<svg viewBox="0 0 54 35" fill="none" xmlns="http://www.w3.org/2000/svg">
<path preserveAspectRatio="xMidYMid" d="M13.5399 0.928675C17.323 0.928675 19.8582 2.14466 21.1457 4.57662C22.0359 6.42046 22.4809 8.22456 22.4809 9.98893H22.4333C19.8423 10.2115 18.07 10.3227 17.1163 10.3227C17.1163 9.06701 16.7269 8.00998 15.948 7.15164C15.2168 6.73836 14.5413 6.53173 13.9214 6.53173H12.9677C11.3464 6.53173 10.3609 7.15959 10.0112 8.41531C9.9317 8.7809 9.89196 9.06701 9.89196 9.27365V9.77434C9.89196 11.5546 10.8298 12.8421 12.7054 13.6369C12.8644 13.7799 14.1678 14.376 16.6156 15.4251C17.919 16.0291 19.1271 16.7762 20.2397 17.6663V17.714H14.2552V18.3816H22.1471V19.3353H23.1485V29.6831H21.1934V35H6.02943V29.6831H2.45301V26.1066H4.47965V24.8668H2.45301V24.0323H9.39126V29.6831H16.4964V21.1712H11.1795V18.3816H4.57502V17.714H7.76995V17.6663C4.9724 15.8066 3.57362 13.1759 3.57362 9.77434V9.32133C3.57362 6.47609 4.44786 4.31435 6.19633 2.8361C7.78585 1.56448 10.2337 0.928675 13.5399 0.928675ZM22.1471 17.714H24.5553V18.3816H22.1471V17.714ZM0.164106 24.8668H2.45301V26.1066H0.164106V24.8668ZM15.4473 24.8668H16.1626C16.2421 24.8827 16.2818 24.9225 16.2818 24.986V25.1529H15.6619V25.3675H16.2103V25.5344C16.2103 25.6139 16.1785 25.6536 16.1149 25.6536H15.6619V25.8921H16.2818V26.059C16.2818 26.1225 16.2421 26.1543 16.1626 26.1543H15.4473C15.3678 26.1543 15.3281 26.1225 15.3281 26.059V24.986C15.344 24.9066 15.3837 24.8668 15.4473 24.8668ZM15.1612 26.5597H15.3758C15.4076 26.5597 15.5427 26.7027 15.7811 26.9888C15.8924 26.7027 15.9798 26.5597 16.0434 26.5597H16.2103C16.2898 26.5597 16.3295 26.5914 16.3295 26.655C15.9957 27.0365 15.8288 27.4339 15.8288 27.8472H15.6619C15.5824 27.8472 15.5268 27.6246 15.495 27.1796C15.2725 26.8776 15.1612 26.6709 15.1612 26.5597ZM14.9943 28.2287H15.2089C15.3043 28.2287 15.3996 28.475 15.495 28.9678H15.6142C15.7096 28.475 15.797 28.2287 15.8765 28.2287H16.1149C16.1785 28.2445 16.2103 28.2843 16.2103 28.3479V29.3969C16.2103 29.4764 16.1785 29.5162 16.1149 29.5162H15.948V28.8009H15.8765L15.6619 29.5162H15.495C15.4155 29.5162 15.3202 29.2777 15.2089 28.8009H15.1612V29.5162H14.9943C14.9148 29.5162 14.8751 29.4764 14.8751 29.3969V28.3479C14.891 28.2684 14.9307 28.2287 14.9943 28.2287ZM21.5272 29.9692H22.0995C22.4015 29.9692 22.5525 30.1202 22.5525 30.4222C22.473 30.4222 22.4333 30.454 22.4333 30.5176C22.5445 30.6606 22.6002 30.7957 22.6002 30.9229C22.5048 31.1454 22.2981 31.2567 21.9802 31.2567H21.6464C21.567 31.2567 21.5272 31.2169 21.5272 31.1375V29.9692ZM21.861 30.2553V30.4699H22.0995C22.163 30.4699 22.1948 30.4301 22.1948 30.3507V30.2553H21.861ZM21.861 30.6845V30.9706H22.1471C22.2266 30.9706 22.2664 30.9308 22.2664 30.8514V30.8037C22.2664 30.7242 22.2266 30.6845 22.1471 30.6845H21.861ZM21.5272 31.6382H21.7657C21.8451 31.6382 22.012 31.9004 22.2664 32.425H22.314V31.6382H22.6002V32.8065C22.6002 32.8859 22.5604 32.9257 22.4809 32.9257H22.3617C22.3299 32.9257 22.1471 32.6873 21.8133 32.2104V32.8065C21.8133 32.8859 21.7736 32.9257 21.6941 32.9257H21.6464C21.567 32.9257 21.5272 32.8859 21.5272 32.8065V31.6382ZM38.2649 0.833304C43.0334 0.833304 46.0376 2.3195 47.2774 5.2919C47.6271 6.02308 47.802 6.50788 47.802 6.74631H44.7978V7.65234H48.0166V7.60465C48.0166 7.4457 47.945 7.15959 47.802 6.74631H53.3096V7.65234H48.0881V7.72387C48.3583 8.99548 48.549 10.3704 48.6603 11.8487C48.6603 11.9281 46.5701 12.0791 42.3897 12.3017V12.254C42.3897 8.45504 41.0863 6.55557 38.4794 6.55557H37.8118C35.8567 6.55557 34.6646 7.38212 34.2354 9.03522C33.8857 10.434 33.7109 12.2699 33.7109 14.5429V19.1922L33.6632 19.8837H31.4935V20.9804H33.6632V29.2539H42.8665V20.6466H48.1358V29.2539H45.2031V34.547H39.0755V35H34.307V34.547H29.4669V31.9004H32.6857V30.756H27.8694V26.8458H25.7951V22.0295H26.8919C26.8442 20.0267 26.8203 18.4531 26.8203 17.3087C26.8203 12.1109 27.0747 8.83653 27.5833 7.48544C28.0443 5.92771 28.8072 4.58457 29.8722 3.45601C31.7637 1.70754 34.5613 0.833304 38.2649 0.833304ZM34.1162 27.5372H34.4023V28.7294H35.0938V29.087H34.1162C34.0526 29.087 34.0208 29.0473 34.0208 28.9678V27.6564C34.0208 27.5769 34.0526 27.5372 34.1162 27.5372ZM41.2929 27.5372H41.6505C41.8413 27.6962 41.9366 27.8472 41.9366 27.9902C41.9684 27.9902 42.1035 27.8392 42.342 27.5372H42.6281V27.6564C42.3579 28.0061 42.2228 28.2525 42.2228 28.3956C42.2704 28.3956 42.4214 28.6022 42.6758 29.0155V29.087H42.342L41.9366 28.634C41.7936 28.9042 41.6823 29.0552 41.6028 29.087H41.2452C41.3247 28.928 41.4995 28.6578 41.7697 28.2763L41.2929 27.5849V27.5372ZM46.0138 29.6115C46.3952 29.7069 46.586 29.8182 46.586 29.9453V30.1838H46.3476L46.133 29.9453H45.8945C45.8151 29.9612 45.7753 30.001 45.7753 30.0645V30.1838C46.3635 30.295 46.6575 30.4222 46.6575 30.5652V30.756C46.6575 31.058 46.4827 31.209 46.133 31.209H45.8945C45.6879 31.209 45.521 31.0977 45.3938 30.8752V30.6368H45.7276C45.7276 30.8275 45.8389 30.9229 46.0614 30.9229H46.133C46.1807 30.9229 46.2363 30.8673 46.2999 30.756C46.2999 30.7083 46.0297 30.5732 45.4892 30.3507L45.4415 30.2314V29.9453C45.4415 29.8182 45.6323 29.7069 46.0138 29.6115Z" fill="url(#paint0_linear)" stroke-width="0" />
<defs>
<linearGradient id="paint0_linear" x1="26.5" y1="-8" x2="26.5" y2="48" gradientUnits="userSpaceOnUse">
<stop stop-color="#FAD449"/>
<stop offset="1" stop-color="#FF1694"/>
</linearGradient>
</defs>
</svg>
